<svg width="138" height="19" viewBox="0 0 138 19" fill="none" xmlns="http://www.w3.org/2000/svg">
<path d="M74.5647 2.41452C74.1248 1.96607 73.6026 1.61034 73.0279 1.36763C72.4531 1.12492 71.8371 1 71.2149 1C70.5928 1 69.9767 1.12492 69.402 1.36763C68.8272 1.61034 68.305 1.96607 67.8652 2.41452L66.9524 3.34476L66.0396 2.41452C65.1512 1.50912 63.9463 1.00047 62.6899 1.00047C61.4335 1.00047 60.2286 1.50912 59.3401 2.41452C58.4517 3.31992 57.9526 4.5479 57.9526 5.82833C57.9526 7.10875 58.4517 8.33674 59.3401 9.24214L60.2529 10.1724L66.9524 17L73.6519 10.1724L74.5647 9.24214C75.0047 8.79391 75.3538 8.26171 75.5919 7.67596C75.8301 7.0902 75.9526 6.46237 75.9526 5.82833C75.9526 5.19428 75.8301 4.56645 75.5919 3.9807C75.3538 3.39494 75.0047 2.86275 74.5647 2.41452V2.41452Z" stroke="#2B2B2B" stroke-width="2" stroke-linecap="round" stroke-linejoin="round"/>
<path d="M7.66668 15.2886C11.3486 15.2886 14.3334 12.3038 14.3334 8.62188C14.3334 4.93998 11.3486 1.9552 7.66668 1.9552C3.98478 1.9552 1 4.93998 1 8.62188C1 12.3038 3.98478 15.2886 7.66668 15.2886Z" stroke="#2B2B2B" stroke-width="2" stroke-linecap="round" stroke-linejoin="round"/>
<path d="M16.9554 17.9552L12.3331 13.333" stroke="#2B2B2B" stroke-width="2" stroke-linejoin="round"/>
<path d="M115.953 4H137.953" stroke="black" stroke-width="2"/>
<path d="M115.953 10H137.953" stroke="black" stroke-width="2"/>
<path d="M115.953 16H137.953" stroke="black" stroke-width="2"/>
</svg>
